# xmcd
#
# Track frame offsets:
#	150
#	24878
#	43567
#	80283
#	93853
#	97747
#	122369
#	140862
#	171221
#
# Disc length: 2690 seconds
#
# Revision: 0
# Processed by: cddbd v1.5PL3 Copyright (c) Steve Scherf et al.
# Submitted via: audiograbber 1.83.01
#
DISCID=5f0a8009
DTITLE=Bruce Ewan-Botafogo - En Vivo Río IV - Año 2000
DYEAR=2000
DGENRE=Blues
TTITLE0=Red Headed Woman
TTITLE1=Don't Start Me To Talkin'
TTITLE2=Early In The Morning
TTITLE3=Solo De Armónica
TTITLE4=Presentación Músicos
TTITLE5=Yonder's Wall
TTITLE6=That's Allright
TTITLE7=Black Night
TTITLE8=Chitlins Con Carne
EXTD=
EXTT0=
EXTT1=
EXTT2=
EXTT3=
EXTT4=
EXTT5=
EXTT6=
EXTT7=
EXTT8=
PLAYORDER=
